<svg width="58" height="204" viewBox="0 0 58 204" fill="none" xmlns="http://www.w3.org/2000/svg">
<path d="M0.50001 201.848L0.50001 204L57.5 204V201.848H0.50001Z" fill="url(#paint0_linear_424_1297)"/>
<path d="M0.50001 199.697L0.50001 200.773H57.5V199.697H0.50001Z" fill="url(#paint1_linear_424_1297)"/>
<path d="M0.50001 196.469L0.50001 197.545L57.5 197.545V196.469H0.50001Z" fill="url(#paint2_linear_424_1297)"/>
<path d="M0.500009 191.09L0.500009 192.166L57.5 192.166V191.09H0.500009Z" fill="url(#paint3_linear_424_1297)"/>
<path d="M0.500009 187.863L0.500009 190.014H57.5V187.863H0.500009Z" fill="url(#paint4_linear_424_1297)"/>
<path d="M0.500009 183.559L0.500009 186.787L57.5 186.787V183.559H0.500009Z" fill="url(#paint5_linear_424_1297)"/>
<path d="M0.500009 179.256L0.500009 180.332L57.5 180.332V179.256H0.500009Z" fill="url(#paint6_linear_424_1297)"/>
<path d="M0.500008 172.801L0.500009 177.105H57.5V172.801H0.500008Z" fill="url(#paint7_linear_424_1297)"/>
<path d="M0.500008 169.574L0.500008 170.65H57.5V169.574L0.500008 169.574Z" fill="url(#paint8_linear_424_1297)"/>
<path d="M0.500008 167.422L0.500008 168.498L57.5 168.498V167.422H0.500008Z" fill="url(#paint9_linear_424_1297)"/>
<path d="M0.500008 162.043L0.500008 166.346H57.5V162.043H0.500008Z" fill="url(#paint10_linear_424_1297)"/>
<path d="M0.500008 158.816L0.500008 159.891H57.5V158.816H0.500008Z" fill="url(#paint11_linear_424_1297)"/>
<path d="M0.500008 155.588L0.500008 156.664L57.5 156.664V155.588H0.500008Z" fill="url(#paint12_linear_424_1297)"/>
<path d="M0.500007 149.133L0.500007 153.436H57.5V149.133H0.500007Z" fill="url(#paint13_linear_424_1297)"/>
<path d="M0.500007 146.981L0.500007 148.057H57.5V146.981H0.500007Z" fill="url(#paint14_linear_424_1297)"/>
<path d="M0.500007 142.678L0.500007 144.83H57.5V142.678H0.500007Z" fill="url(#paint15_linear_424_1297)"/>
<path d="M0.500007 139.451L0.500007 141.602H57.5V139.451H0.500007Z" fill="url(#paint16_linear_424_1297)"/>
<path d="M0.500007 135.147L0.500007 137.299H57.5V135.147H0.500007Z" fill="url(#paint17_linear_424_1297)"/>
<path d="M0.500006 131.92L0.500006 132.996L57.5 132.996V131.92H0.500006Z" fill="url(#paint18_linear_424_1297)"/>
<path d="M0.500006 128.692L0.500006 129.768L57.5 129.768V128.692H0.500006Z" fill="url(#paint19_linear_424_1297)"/>
<path d="M0.500006 125.465L0.500006 127.617H57.5V125.465H0.500006Z" fill="url(#paint20_linear_424_1297)"/>
<path d="M0.500006 119.01L0.500006 121.162H57.5V119.01H0.500006Z" fill="url(#paint21_linear_424_1297)"/>
<path d="M0.500006 115.783L0.500006 117.934H57.5V115.783H0.500006Z" fill="url(#paint22_linear_424_1297)"/>
<path d="M0.500005 111.479L0.500006 113.631H57.5V111.479H0.500005Z" fill="url(#paint23_linear_424_1297)"/>
<path d="M0.500005 108.252L0.500005 109.328H57.5V108.252L0.500005 108.252Z" fill="url(#paint24_linear_424_1297)"/>
<path d="M0.500005 105.024L0.500005 106.1H57.5V105.024L0.500005 105.024Z" fill="url(#paint25_linear_424_1297)"/>
<path d="M0.500005 98.5694L0.500005 100.721H57.5V98.5694H0.500005Z" fill="url(#paint26_linear_424_1297)"/>
<path d="M0.500005 96.4177L0.500005 97.4936H57.5V96.4177L0.500005 96.4177Z" fill="url(#paint27_linear_424_1297)"/>
<path d="M0.500005 93.1903L0.500005 94.2661H57.5V93.1903L0.500005 93.1903Z" fill="url(#paint28_linear_424_1297)"/>
<path d="M0.500004 89.9628L0.500004 92.1144H57.5V89.9628H0.500004Z" fill="url(#paint29_linear_424_1297)"/>
<path d="M0.500004 84.5837L0.500004 85.6595H57.5V84.5837L0.500004 84.5837Z" fill="url(#paint30_linear_424_1297)"/>
<path d="M0.500004 81.3562L0.500004 82.432H57.5V81.3562L0.500004 81.3562Z" fill="url(#paint31_linear_424_1297)"/>
<path d="M0.500004 74.9013L0.500004 79.2046H57.5V74.9013L0.500004 74.9013Z" fill="url(#paint32_linear_424_1297)"/>
<path d="M0.500004 72.7496L0.500004 73.8254H57.5V72.7496L0.500004 72.7496Z" fill="url(#paint33_linear_424_1297)"/>
<path d="M0.500003 67.3705L0.500003 68.4463H57.5V67.3705L0.500003 67.3705Z" fill="url(#paint34_linear_424_1297)"/>
<path d="M0.500003 64.143L0.500003 66.2947H57.5V64.143L0.500003 64.143Z" fill="url(#paint35_linear_424_1297)"/>
<path d="M0.500003 60.9156L0.500003 61.9914H57.5V60.9156H0.500003Z" fill="url(#paint36_linear_424_1297)"/>
<path d="M0.500003 53.3848L0.500003 57.6881H57.5V53.3848L0.500003 53.3848Z" fill="url(#paint37_linear_424_1297)"/>
<path d="M0.500002 51.2331L0.500003 52.309H57.5V51.2331H0.500002Z" fill="url(#paint38_linear_424_1297)"/>
<path d="M0.500002 49.0815L0.500002 50.1573H57.5V49.0815H0.500002Z" fill="url(#paint39_linear_424_1297)"/>
<path d="M0.500002 43.7024L0.500002 44.7782H57.5L57.5 43.7024H0.500002Z" fill="url(#paint40_linear_424_1297)"/>
<path d="M0.500002 39.3991L0.500002 41.5507H57.5V39.3991L0.500002 39.3991Z" fill="url(#paint41_linear_424_1297)"/>
<path d="M0.500002 37.2474L0.500002 38.3233H57.5V37.2474H0.500002Z" fill="url(#paint42_linear_424_1297)"/>
<path d="M0.500002 34.02L0.500002 36.1716H57.5V34.02L0.500002 34.02Z" fill="url(#paint43_linear_424_1297)"/>
<path d="M0.500001 30.7925L0.500002 31.8683L57.5 31.8683V30.7925L0.500001 30.7925Z" fill="url(#paint44_linear_424_1297)"/>
<path d="M0.500001 25.4134L0.500001 26.4892L57.5 26.4892V25.4134L0.500001 25.4134Z" fill="url(#paint45_linear_424_1297)"/>
<path d="M0.500001 23.2617L0.500001 24.3376L57.5 24.3376V23.2617L0.500001 23.2617Z" fill="url(#paint46_linear_424_1297)"/>
<path d="M0.500001 16.8068L0.500001 18.9584L57.5 18.9584V16.8068L0.500001 16.8068Z" fill="url(#paint47_linear_424_1297)"/>
<path d="M0.500001 12.5035L0.500001 14.6551L57.5 14.6551V12.5035L0.500001 12.5035Z" fill="url(#paint48_linear_424_1297)"/>
<path d="M0.5 6.04854L0.5 9.27601L57.5 9.27601V6.04854L0.5 6.04854Z" fill="url(#paint49_linear_424_1297)"/>
<path d="M0.5 3.8969L0.5 4.97273L57.5 4.97272V3.8969L0.5 3.8969Z" fill="url(#paint50_linear_424_1297)"/>
<path d="M0.5 0.669436L0.5 2.82108L57.5 2.82108V0.669434L0.5 0.669436Z" fill="url(#paint51_linear_424_1297)"/>
<defs>
<linearGradient id="paint0_linear_424_1297" x1="0.500137" y1="2.82092" x2="57.5001" y2="2.82092" gradientUnits="userSpaceOnUse">
<stop/>
<stop offset="1"/>
</linearGradient>
<linearGradient id="paint1_linear_424_1297" x1="0.500137" y1="2.82092" x2="57.5001" y2="2.82092" gradientUnits="userSpaceOnUse">
<stop/>
<stop offset="1"/>
</linearGradient>
<linearGradient id="paint2_linear_424_1297" x1="0.500137" y1="2.82092" x2="57.5001" y2="2.82092" gradientUnits="userSpaceOnUse">
<stop/>
<stop offset="1"/>
</linearGradient>
<linearGradient id="paint3_linear_424_1297" x1="0.500137" y1="2.82092" x2="57.5001" y2="2.82092" gradientUnits="userSpaceOnUse">
<stop/>
<stop offset="1"/>
</linearGradient>
<linearGradient id="paint4_linear_424_1297" x1="0.500137" y1="2.82092" x2="57.5001" y2="2.82092" gradientUnits="userSpaceOnUse">
<stop/>
<stop offset="1"/>
</linearGradient>
<linearGradient id="paint5_linear_424_1297" x1="0.500137" y1="2.82092" x2="57.5001" y2="2.82092" gradientUnits="userSpaceOnUse">
<stop/>
<stop offset="1"/>
</linearGradient>
<linearGradient id="paint6_linear_424_1297" x1="0.500137" y1="2.82092" x2="57.5001" y2="2.82092" gradientUnits="userSpaceOnUse">
<stop/>
<stop offset="1"/>
</linearGradient>
<linearGradient id="paint7_linear_424_1297" x1="0.500137" y1="2.82092" x2="57.5001" y2="2.82092" gradientUnits="userSpaceOnUse">
<stop/>
<stop offset="1"/>
</linearGradient>
<linearGradient id="paint8_linear_424_1297" x1="0.500137" y1="2.82092" x2="57.5001" y2="2.82092" gradientUnits="userSpaceOnUse">
<stop/>
<stop offset="1"/>
</linearGradient>
<linearGradient id="paint9_linear_424_1297" x1="0.500137" y1="2.82092" x2="57.5001" y2="2.82092" gradientUnits="userSpaceOnUse">
<stop/>
<stop offset="1"/>
</linearGradient>
<linearGradient id="paint10_linear_424_1297" x1="0.500137" y1="2.82092" x2="57.5001" y2="2.82092" gradientUnits="userSpaceOnUse">
<stop/>
<stop offset="1"/>
</linearGradient>
<linearGradient id="paint11_linear_424_1297" x1="0.500137" y1="2.82092" x2="57.5001" y2="2.82092" gradientUnits="userSpaceOnUse">
<stop/>
<stop offset="1"/>
</linearGradient>
<linearGradient id="paint12_linear_424_1297" x1="0.500137" y1="2.82092" x2="57.5001" y2="2.82092" gradientUnits="userSpaceOnUse">
<stop/>
<stop offset="1"/>
</linearGradient>
<linearGradient id="paint13_linear_424_1297" x1="0.500137" y1="2.82092" x2="57.5001" y2="2.82092" gradientUnits="userSpaceOnUse">
<stop/>
<stop offset="1"/>
</linearGradient>
<linearGradient id="paint14_linear_424_1297" x1="0.500137" y1="2.82092" x2="57.5001" y2="2.82092" gradientUnits="userSpaceOnUse">
<stop/>
<stop offset="1"/>
</linearGradient>
<linearGradient id="paint15_linear_424_1297" x1="0.500137" y1="2.82092" x2="57.5001" y2="2.82092" gradientUnits="userSpaceOnUse">
<stop/>
<stop offset="1"/>
</linearGradient>
<linearGradient id="paint16_linear_424_1297" x1="0.500137" y1="2.82092" x2="57.5001" y2="2.82092" gradientUnits="userSpaceOnUse">
<stop/>
<stop offset="1"/>
</linearGradient>
<linearGradient id="paint17_linear_424_1297" x1="0.500137" y1="2.82092" x2="57.5001" y2="2.82092" gradientUnits="userSpaceOnUse">
<stop/>
<stop offset="1"/>
</linearGradient>
<linearGradient id="paint18_linear_424_1297" x1="0.500137" y1="2.82092" x2="57.5001" y2="2.82092" gradientUnits="userSpaceOnUse">
<stop/>
<stop offset="1"/>
</linearGradient>
<linearGradient id="paint19_linear_424_1297" x1="0.500137" y1="2.82092" x2="57.5001" y2="2.82092" gradientUnits="userSpaceOnUse">
<stop/>
<stop offset="1"/>
</linearGradient>
<linearGradient id="paint20_linear_424_1297" x1="0.500137" y1="2.82092" x2="57.5001" y2="2.82092" gradientUnits="userSpaceOnUse">
<stop/>
<stop offset="1"/>
</linearGradient>
<linearGradient id="paint21_linear_424_1297" x1="0.500137" y1="2.82092" x2="57.5001" y2="2.82092" gradientUnits="userSpaceOnUse">
<stop/>
<stop offset="1"/>
</linearGradient>
<linearGradient id="paint22_linear_424_1297" x1="0.500137" y1="2.82092" x2="57.5001" y2="2.82092" gradientUnits="userSpaceOnUse">
<stop/>
<stop offset="1"/>
</linearGradient>
<linearGradient id="paint23_linear_424_1297" x1="0.500137" y1="2.82092" x2="57.5001" y2="2.82092" gradientUnits="userSpaceOnUse">
<stop/>
<stop offset="1"/>
</linearGradient>
<linearGradient id="paint24_linear_424_1297" x1="0.500137" y1="2.82092" x2="57.5001" y2="2.82092" gradientUnits="userSpaceOnUse">
<stop/>
<stop offset="1"/>
</linearGradient>
<linearGradient id="paint25_linear_424_1297" x1="0.500137" y1="2.82092" x2="57.5001" y2="2.82092" gradientUnits="userSpaceOnUse">
<stop/>
<stop offset="1"/>
</linearGradient>
<linearGradient id="paint26_linear_424_1297" x1="0.500137" y1="2.82092" x2="57.5001" y2="2.82092" gradientUnits="userSpaceOnUse">
<stop/>
<stop offset="1"/>
</linearGradient>
<linearGradient id="paint27_linear_424_1297" x1="0.500137" y1="2.82092" x2="57.5001" y2="2.82092" gradientUnits="userSpaceOnUse">
<stop/>
<stop offset="1"/>
</linearGradient>
<linearGradient id="paint28_linear_424_1297" x1="0.500137" y1="2.82092" x2="57.5001" y2="2.82092" gradientUnits="userSpaceOnUse">
<stop/>
<stop offset="1"/>
</linearGradient>
<linearGradient id="paint29_linear_424_1297" x1="0.500137" y1="2.82092" x2="57.5001" y2="2.82092" gradientUnits="userSpaceOnUse">
<stop/>
<stop offset="1"/>
</linearGradient>
<linearGradient id="paint30_linear_424_1297" x1="0.500137" y1="2.82092" x2="57.5001" y2="2.82092" gradientUnits="userSpaceOnUse">
<stop/>
<stop offset="1"/>
</linearGradient>
<linearGradient id="paint31_linear_424_1297" x1="0.500137" y1="2.82092" x2="57.5001" y2="2.82092" gradientUnits="userSpaceOnUse">
<stop/>
<stop offset="1"/>
</linearGradient>
<linearGradient id="paint32_linear_424_1297" x1="0.500137" y1="2.82092" x2="57.5001" y2="2.82092" gradientUnits="userSpaceOnUse">
<stop/>
<stop offset="1"/>
</linearGradient>
<linearGradient id="paint33_linear_424_1297" x1="0.500137" y1="2.82092" x2="57.5001" y2="2.82092" gradientUnits="userSpaceOnUse">
<stop/>
<stop offset="1"/>
</linearGradient>
<linearGradient id="paint34_linear_424_1297" x1="0.500137" y1="2.82092" x2="57.5001" y2="2.82092" gradientUnits="userSpaceOnUse">
<stop/>
<stop offset="1"/>
</linearGradient>
<linearGradient id="paint35_linear_424_1297" x1="0.500137" y1="2.82092" x2="57.5001" y2="2.82092" gradientUnits="userSpaceOnUse">
<stop/>
<stop offset="1"/>
</linearGradient>
<linearGradient id="paint36_linear_424_1297" x1="0.500137" y1="2.82092" x2="57.5001" y2="2.82092" gradientUnits="userSpaceOnUse">
<stop/>
<stop offset="1"/>
</linearGradient>
<linearGradient id="paint37_linear_424_1297" x1="0.500137" y1="2.82092" x2="57.5001" y2="2.82092" gradientUnits="userSpaceOnUse">
<stop/>
<stop offset="1"/>
</linearGradient>
<linearGradient id="paint38_linear_424_1297" x1="0.500137" y1="2.82092" x2="57.5001" y2="2.82092" gradientUnits="userSpaceOnUse">
<stop/>
<stop offset="1"/>
</linearGradient>
<linearGradient id="paint39_linear_424_1297" x1="0.500137" y1="2.82092" x2="57.5001" y2="2.82092" gradientUnits="userSpaceOnUse">
<stop/>
<stop offset="1"/>
</linearGradient>
<linearGradient id="paint40_linear_424_1297" x1="0.500137" y1="2.82092" x2="57.5001" y2="2.82092" gradientUnits="userSpaceOnUse">
<stop/>
<stop offset="1"/>
</linearGradient>
<linearGradient id="paint41_linear_424_1297" x1="0.500137" y1="2.82092" x2="57.5001" y2="2.82092" gradientUnits="userSpaceOnUse">
<stop/>
<stop offset="1"/>
</linearGradient>
<linearGradient id="paint42_linear_424_1297" x1="0.500137" y1="2.82092" x2="57.5001" y2="2.82092" gradientUnits="userSpaceOnUse">
<stop/>
<stop offset="1"/>
</linearGradient>
<linearGradient id="paint43_linear_424_1297" x1="0.500137" y1="2.82092" x2="57.5001" y2="2.82092" gradientUnits="userSpaceOnUse">
<stop/>
<stop offset="1"/>
</linearGradient>
<linearGradient id="paint44_linear_424_1297" x1="0.500137" y1="2.82092" x2="57.5001" y2="2.82092" gradientUnits="userSpaceOnUse">
<stop/>
<stop offset="1"/>
</linearGradient>
<linearGradient id="paint45_linear_424_1297" x1="0.500137" y1="2.82092" x2="57.5001" y2="2.82092" gradientUnits="userSpaceOnUse">
<stop/>
<stop offset="1"/>
</linearGradient>
<linearGradient id="paint46_linear_424_1297" x1="0.500137" y1="2.82092" x2="57.5001" y2="2.82092" gradientUnits="userSpaceOnUse">
<stop/>
<stop offset="1"/>
</linearGradient>
<linearGradient id="paint47_linear_424_1297" x1="0.500137" y1="2.82092" x2="57.5001" y2="2.82092" gradientUnits="userSpaceOnUse">
<stop/>
<stop offset="1"/>
</linearGradient>
<linearGradient id="paint48_linear_424_1297" x1="0.500137" y1="2.82092" x2="57.5001" y2="2.82092" gradientUnits="userSpaceOnUse">
<stop/>
<stop offset="1"/>
</linearGradient>
<linearGradient id="paint49_linear_424_1297" x1="0.500137" y1="2.82092" x2="57.5001" y2="2.82092" gradientUnits="userSpaceOnUse">
<stop/>
<stop offset="1"/>
</linearGradient>
<linearGradient id="paint50_linear_424_1297" x1="0.500137" y1="2.82092" x2="57.5001" y2="2.82092" gradientUnits="userSpaceOnUse">
<stop/>
<stop offset="1"/>
</linearGradient>
<linearGradient id="paint51_linear_424_1297" x1="0.500137" y1="2.82092" x2="57.5001" y2="2.82092" gradientUnits="userSpaceOnUse">
<stop/>
<stop offset="1"/>
</linearGradient>
</defs>
</svg>
