<svg width="134" height="232" viewBox="0 0 134 232" fill="none" xmlns="http://www.w3.org/2000/svg">
<path d="M91.9131 0.978337C93.2 1.79213 94.1996 3.022 94.724 4.43821C96.661 9.65441 97.3138 15.2058 96.7221 21.4115C96.1037 27.904 94.9018 34.2878 93.8086 39.6751C92.8343 44.4771 91.6149 49.2543 90.1847 53.8837C88.0718 60.723 85.7377 67.3164 83.7339 72.8605C82.7589 75.5556 81.586 78.2123 80.4482 80.7755C79.9554 81.8907 79.4627 83.006 78.9803 84.1278C78.8863 84.3528 78.7689 84.5003 78.5936 84.7317C78.5027 84.8525 78.3744 85.0172 78.196 85.2612L72.9069 92.5407L76.1842 84.1577C76.5714 83.1637 76.9465 82.2343 77.3033 81.3416C78.0524 79.4774 78.6956 77.8644 79.2777 76.2031C79.7507 74.844 80.2329 73.4858 80.7185 72.1299C82.2234 67.9093 83.7758 63.545 84.992 59.1852C86.9391 52.1881 89.1461 43.9091 90.74 35.5076C91.966 29.0473 92.3389 22.5153 92.5269 17.5438C92.6938 13.1326 91.816 9.57922 89.8376 6.68923C89.5274 6.23274 89.2032 5.89759 88.8789 5.69251C88.3441 5.35433 87.6088 5.18821 85.8682 6.23746C81.9925 8.57809 78.6517 11.8981 75.6527 16.3887C74.6414 17.9039 73.6197 19.4126 72.5946 20.9191C69.3134 25.7566 65.9185 30.7585 63.0195 35.9004C58.7419 43.4822 54.9147 51.7874 51.8425 58.4636C49.1619 64.2835 46.8097 70.287 44.4351 76.4402C42.4858 81.4934 40.4958 87.0462 38.353 93.4135C36.0796 100.171 33.8859 107.084 31.7624 113.772L31.348 115.077C30.602 117.425 29.8819 119.992 29.1438 122.924C29.1238 123.032 29.1733 123.289 29.2363 123.411C29.9745 124.008 30.7347 124.624 31.5075 125.113C33.205 126.186 34.5491 126.39 36 125.799C38.7282 124.685 40.6662 123.476 41.9265 122.094C45.1014 118.616 47.6829 115.168 49.5974 111.842C52.0976 107.499 54.2511 102.826 56.3304 98.308C56.6867 97.5306 57.0465 96.7555 57.4062 95.9804C57.8368 95.0475 58.1237 94.0286 58.426 92.9472C58.669 92.0741 58.9225 91.1691 59.2671 90.288C59.5585 89.5371 60.2542 89.1624 60.807 88.8612L60.9444 88.789C61.4312 88.5232 62.0258 88.5377 62.495 88.8344C62.8297 89.046 63.0665 89.3742 63.16 89.761L63.194 89.8982C63.3287 90.4413 63.4926 91.1138 63.2993 91.8014C62.556 94.4357 61.774 97.1082 61.0157 99.6897C60.0709 102.91 59.0936 106.235 58.19 109.52C57.1628 113.252 56.203 117.229 55.2536 121.671C54.1117 127.013 52.8167 133.063 51.7994 139.087C51.0165 143.716 50.41 148.471 49.8198 153.063C49.6751 154.2 49.5304 155.338 49.3801 156.477C49.3247 156.886 49.3065 157.289 49.3133 157.698C49.6741 157.28 49.9951 156.856 50.241 156.414C51.4159 154.289 52.4939 152.049 53.541 149.882C53.8713 149.199 54.2039 148.513 54.5343 147.83C55.0911 146.697 55.6341 145.556 56.1806 144.417C56.8087 143.103 57.439 141.785 58.0844 140.482L58.1952 140.254C59.9983 136.593 61.8629 132.811 63.7682 129.119C64.1189 128.434 64.5962 127.878 65.0592 127.337C65.2022 127.172 65.3417 127.005 65.4813 126.837C65.8326 126.404 66.3945 126.195 66.9415 126.3L67.3339 126.375C67.5227 126.412 67.701 126.482 67.8632 126.584C68.2737 126.844 68.5373 127.29 68.5698 127.773C68.5917 128.105 68.6261 128.44 68.6549 128.777C68.6933 129.182 68.7352 129.589 68.7546 130.002C69.5052 127.974 70.2759 125.984 71.0504 124.049C71.6075 122.656 72.2363 121.28 72.848 119.946C73.3546 118.84 73.8782 117.691 74.3524 116.559C74.6055 115.953 74.7977 115.313 74.9979 114.629C75.2068 113.932 75.4241 113.207 75.7165 112.5C76.3281 111.021 77.0458 109.581 77.7409 108.184L78.0328 107.592C80.6283 102.35 83.3986 96.7699 86.1782 91.2439C86.4369 90.7279 86.7644 90.2939 87.0777 89.8749C87.2747 89.6091 87.4644 89.3627 87.6155 89.116C88.9806 86.9038 90.3477 84.635 91.6634 82.4398C94.6277 77.5079 97.6964 72.4106 101.006 67.5815C104.539 62.4305 109.009 56.6674 115.411 52.9596C116.699 52.2126 118.06 51.4821 119.455 50.7881C119.914 50.558 120.359 50.6268 120.698 50.7162C122.538 49.6862 125.649 50.487 127.315 51.5408L127.419 51.6062C131.794 54.4937 132.411 59.0099 132.956 62.9986C133.008 63.374 133.06 63.7494 133.113 64.1248C133.434 66.343 133.773 69.2519 133.546 72.1015C133.284 75.402 132.768 78.7153 132.273 81.9206C132.137 82.7844 132.005 83.6504 131.872 84.5164C131.583 86.4401 131.001 89.6293 130.521 91.6399C129.836 94.5183 129.05 97.5495 128.182 100.64C126.598 106.3 124.958 112.147 123.201 117.919C122.063 121.659 120.726 125.392 119.452 128.872C117.567 134.024 115.855 138.663 113.982 143.244C111.967 148.179 109.764 153.259 107.254 158.772C105.88 161.784 104.38 164.783 102.922 167.684C102.469 168.583 102.02 169.485 101.57 170.387C101.247 171.035 100.925 171.69 100.605 172.341C99.3545 174.876 98.0607 177.495 96.6683 180.018C95.8801 181.447 94.9426 182.792 94.0391 184.091C93.6557 184.644 93.271 185.191 92.8979 185.751C92.2192 186.763 91.5576 187.824 90.9143 188.849C89.4157 191.242 87.8635 193.712 85.9804 195.896C82.5816 199.834 79.0568 203.216 75.5067 205.951C72.1931 208.502 68.2323 209.435 64.9015 208.447C64.2048 208.242 63.4901 207.906 62.7794 207.457C61.2785 206.508 59.9404 205.141 59.1009 203.704C55.6473 197.77 55.5506 190.965 55.7284 185.047C55.8772 180.137 56.2797 175.056 56.9537 169.514C57.4594 165.346 58.309 161.169 59.1316 157.134L59.2606 156.502C60.3136 151.316 61.4348 146.052 62.5163 140.966C62.6034 140.554 62.6904 140.141 62.7808 139.731C61.4832 142.424 60.143 145.178 58.7615 147.866C56.8047 151.671 54.1818 156.674 51.263 161.611C50.5637 162.793 49.6625 164.05 48.3022 164.376C47.5507 164.556 46.775 164.408 46.0574 163.954C46.0022 163.919 45.9435 163.882 45.8905 163.844C41.4602 160.714 38.2527 158.141 35.4836 155.494C32.6274 152.762 29.955 149.771 27.3733 146.88C26.4709 145.871 25.5719 144.863 24.6629 143.864C24.3672 143.538 24.1019 143.201 23.8405 142.843C23.7272 143.244 23.6234 143.622 23.5322 144.003C23.3674 144.699 23.171 145.399 22.983 146.07C22.5022 147.801 22.0462 149.431 22.0096 151.046C21.9823 152.35 22.4911 153.959 23.5691 155.966L23.7128 156.235C26.4482 161.335 29.2797 166.61 32.4285 171.537C37.6835 179.763 42.8737 187.793 48.5805 195.571C53.2044 201.869 58.4368 207.878 63.8439 213.992C66.8269 217.363 70.2774 220.46 73.6189 223.456L73.9419 223.747C74.1689 223.953 74.4284 224.146 74.7355 224.34C75.4773 224.809 76.3743 225.193 77.2393 225.567C77.4715 225.665 77.7016 225.767 77.9338 225.866C78.2165 225.992 78.4677 226.122 78.6954 226.266C79.9995 227.09 80.6232 228.357 80.6628 230.258C80.673 230.799 80.3892 231.309 79.9231 231.588C79.4569 231.867 78.8675 231.875 78.3933 231.609C77.9387 231.35 77.5025 231.108 77.0789 230.869C75.8334 230.173 74.6613 229.514 73.5225 228.832C72.8411 228.42 72.1674 228.004 71.5187 227.594C70.9909 227.26 70.4824 226.934 70.0016 226.625C69.5897 226.36 69.1999 226.113 68.8376 225.884C68.7513 225.829 68.6716 225.765 68.5997 225.695C50.5955 208.424 35.6127 187.65 20.1647 158.508C17.434 168.158 13.0657 201.737 13.6041 209.409L15.8249 210.861L13.1423 215.875L9.97793 215.479L9.73562 214.526C9.52057 213.667 9.29353 212.781 9.26091 211.84L9.22359 210.89C9.11207 207.928 8.99453 204.86 9.20289 201.834C9.35216 199.658 9.69733 197.486 10.0318 195.383C10.2235 194.179 10.421 192.935 10.5795 191.714C10.7093 190.707 10.7987 189.664 10.8866 188.655C11.0005 187.329 11.1225 185.96 11.333 184.603C11.7145 182.121 12.1861 179.619 12.6383 177.2C12.827 176.192 13.0157 175.183 13.2009 174.172C13.411 173.023 13.6154 171.875 13.8254 170.725C14.3635 167.759 14.9172 164.691 15.4857 161.676C15.6655 160.72 15.8838 159.764 16.095 158.842C16.5162 156.992 16.9127 155.242 17.0515 153.464C17.1107 152.706 16.6432 151.712 16.1912 150.746C16.0382 150.423 15.8874 150.096 15.7539 149.78C15.1696 148.413 14.5352 147.033 13.9166 145.697C13.4569 144.698 12.9917 143.7 12.5489 142.697C12.0162 141.493 11.4814 140.291 10.9443 139.094C9.27975 135.356 7.55434 131.493 5.96163 127.642C4.69543 124.581 3.55247 121.424 2.44712 118.367C2.12241 117.468 1.79551 116.572 1.46516 115.674C1.03869 114.507 0.728593 113.333 0.456645 112.235C0.332118 111.737 0.222889 110.222 1.29628 109.831C1.53062 109.743 2.73854 109.345 3.58728 109.881C3.67698 109.938 3.76014 110.005 3.83552 110.077L4.42848 110.659C5.68029 111.88 6.97387 113.141 8.03132 114.601C9.69143 116.894 11.2993 119.27 12.8599 121.568C13.9611 123.195 15.1045 124.877 16.249 126.512C17.8477 128.796 19.5382 131.079 21.1792 133.288L21.9874 134.378C22.1865 133.651 22.3856 132.923 22.5848 132.196C23.2022 129.959 23.8382 127.648 24.3979 125.365C24.4442 125.177 24.3718 124.726 24.1456 124.236C23.6105 123.074 23.0219 121.896 22.4548 120.762C21.4512 118.744 20.4086 116.657 19.5705 114.508C17.54 109.31 16.9257 103.445 17.6394 96.0537C18.1995 90.257 19.2698 83.5007 22.9496 77.3148C23.4058 76.5476 23.9399 75.7718 24.726 75.3C25.9961 74.5366 27.0918 74.2702 27.9782 74.503C28.1514 74.5498 28.3185 74.6217 28.4772 74.7221C29.0775 75.1017 29.562 75.8708 29.9854 77.1412C30.522 78.7291 30.8718 80.1312 31.0606 81.4365C31.1663 82.1782 30.8267 82.807 30.5541 83.3143L30.5206 83.375C30.3261 83.7437 29.9776 84.0198 29.5693 84.1232C29.1623 84.2322 28.7237 84.1621 28.3683 83.9373C28.2475 83.861 28.1377 83.7674 28.0421 83.6588C27.7882 83.3729 27.4423 82.9806 27.2448 82.4604C26.8763 81.4851 26.5601 80.5186 26.1735 79.3198C25.8087 79.7591 25.5198 80.1549 25.4023 80.524C25.1177 81.4094 24.8185 82.2951 24.5192 83.1808C23.4601 86.3144 22.3651 89.5506 21.9756 92.7557C21.3873 97.6042 21.4239 102.549 22.08 107.056C22.4548 109.641 23.4996 112.129 24.6068 114.762C25.0497 115.818 25.5094 116.909 25.9181 117.996C26.0018 118.223 26.0947 118.45 26.2 118.681C26.4619 117.747 26.7053 116.889 26.972 116.016L27.6373 113.834C28.9862 109.394 30.3847 104.807 31.7897 100.302C32.6859 97.4413 33.6525 94.5914 34.6723 91.8331C35.4132 89.8288 36.1417 87.8214 36.8702 85.814C38.5591 81.165 40.3028 76.353 42.171 71.6727C45.8188 62.5359 48.9061 55.1944 51.8825 48.5781C54.4279 42.9185 57.3879 37.3669 59.9463 32.6796C61.4269 29.9717 63.1328 27.358 64.7865 24.8269C65.2802 24.069 65.7774 23.3133 66.2643 22.5511C67.784 20.186 69.0694 18.3138 70.3057 16.6565C70.9179 15.8337 71.604 15.077 72.2659 14.3434C72.7505 13.8063 73.2042 13.3026 73.6425 12.77C74.1982 12.0898 74.7458 11.3612 75.2739 10.6636C76.2632 9.3513 77.2863 7.99301 78.4727 6.78134C80.127 5.08947 81.9807 3.58632 83.7711 2.12992C84.1903 1.78767 84.6152 1.44418 85.0311 1.09977C85.3649 0.823971 85.7493 0.720029 86.1024 0.67338L86.1077 0.565818L86.8245 0.31054C88.4726 -0.271725 90.3225 -0.0274512 91.9131 0.978337ZM64.8643 202.938C65.9097 203.599 67.2236 203.682 68.9919 203.2C72.1307 202.346 75.0482 200.069 76.9419 198.312C81.2305 194.333 84.6931 189.957 87.2379 185.315C88.6147 182.801 90.1431 180.331 91.6193 177.943C93.0161 175.688 94.4596 173.352 95.7591 171.007C97.4527 167.947 98.9776 164.703 100.448 161.56C101.101 160.169 101.777 158.726 102.46 157.317C104.54 153.027 106.478 148.786 108.221 144.716C109.948 140.679 111.292 137.301 112.453 134.082C115.939 124.4 118.699 116.461 121.14 109.096C122.777 104.154 124.469 98.8897 125.616 93.6087C127.069 86.9113 128.296 79.8302 129.262 72.5595C129.857 68.0671 129.569 64.1302 128.385 60.5273C127.653 58.3152 126.782 56.9444 125.636 56.2201C125.219 55.9561 124.767 55.7766 124.255 55.6697C120.603 54.9075 117.019 55.9916 113.298 58.9891C108.785 62.6282 105.424 67.4687 102.174 72.1573L101.664 72.8953C99.3603 76.2104 97.328 79.6686 95.6496 82.613C92.8368 87.5347 90.1261 92.6462 87.5929 97.7977C85.1771 102.71 82.6314 107.95 80.3558 113.26C76.9916 121.115 74.3882 127.577 72.1699 133.598C69.7491 140.16 67.2281 147.248 65.178 154.561C63.5717 160.293 62.5532 166.181 61.5701 172.212C61.2553 174.153 61.692 175.952 62.878 177.575L68.2741 175.877C68.702 175.743 69.1675 175.801 69.5401 176.037C69.9748 176.312 70.2413 176.784 70.2542 177.298C70.268 177.803 70.0241 178.281 69.6024 178.573C67.9505 179.727 66.5086 180.541 65.0602 181.143C64.3466 181.439 62.1824 182.341 60.3435 181.178C60.1986 181.086 60.0567 180.982 59.9215 180.868C59.9126 181.416 59.8891 183.6 59.8789 184.143C59.803 189.296 59.8891 193.911 61.6926 198.223C62.7535 200.769 63.7327 202.222 64.8643 202.938ZM44.894 159.439C45.8662 146.277 48.619 133.393 51.2869 120.917C51.7033 118.968 52.1289 116.981 52.5477 114.99C49.154 120.899 45.5036 125.098 41.0329 128.311C37.068 131.159 32.6192 131.542 29.1346 129.339C28.617 129.011 28.1197 128.629 27.648 128.191C27.2261 129.829 26.6758 132.035 26.3521 133.349L26.316 133.49C25.9824 134.721 25.6782 135.637 25.4341 136.374C25.1132 137.348 24.8985 137.993 24.9658 138.329C25.0369 138.683 25.5192 139.234 26.2765 140.007C28.4649 142.244 30.5142 144.663 32.4923 147.003C33.703 148.434 34.958 149.917 36.2215 151.333C37.7015 152.987 39.3988 154.687 41.4086 156.527C42.4988 157.529 43.6606 158.457 44.894 159.439ZM18.7787 146.318C19.2932 144.489 19.8209 142.6 20.2473 140.735C20.6146 139.13 20.45 138.612 20.3659 138.462C19.616 137.173 18.6788 135.997 17.6866 134.748C17.2694 134.224 16.8488 133.698 16.4472 133.164L15.0472 131.315C13.0479 128.672 11.0507 126.025 9.06479 123.376C9.02738 123.329 8.99213 123.278 8.95472 123.23C11.6116 130.752 14.8514 138.369 18.7787 146.318Z" fill="black"/>
<path d="M87.2057 1.74713C87.2068 1.6996 87.2187 1.54326 87.2297 1.39598C89.8 0.48579 92.6756 2.2319 93.6441 4.84C95.6367 10.1974 96.1058 15.7338 95.574 21.3026C94.9919 27.3938 93.8918 33.4564 92.6778 39.447C91.7137 44.2024 90.5162 48.9067 89.0851 53.5452C87.1188 59.9084 84.9153 66.2035 82.6522 72.4707C81.2762 76.2812 79.5163 79.9502 77.9266 83.6785C77.8602 83.8293 77.7321 83.9556 77.2748 84.5871C78.4641 81.5455 79.5097 79.0976 80.3818 76.5881C82.362 70.9133 84.5085 65.2811 86.1159 59.5008C88.3042 51.6486 90.3686 43.7326 91.8864 35.7264C93.0154 29.7785 93.4631 23.6553 93.6939 17.5926C93.8464 13.6013 93.2193 9.57499 90.8027 6.04148C89.1273 3.58892 87.2279 4.07976 85.2822 5.2548C80.9247 7.8837 77.5089 11.5516 74.7075 15.7525C70.3885 22.2235 65.8447 28.5765 62.0286 35.3366C57.8918 42.6651 54.3338 50.3308 50.8084 57.9833C48.0881 63.889 45.7126 69.9597 43.3722 76.0285C41.2028 81.6511 39.1958 87.3378 37.2708 93.0474C34.8489 100.246 32.5582 107.488 30.2641 114.729C29.4352 117.338 28.7091 119.983 28.0422 122.642C27.9185 123.127 28.1151 123.97 28.4745 124.265C30.7955 126.147 33.2884 128.162 36.4581 126.869C38.7538 125.935 41.1679 124.661 42.7984 122.877C45.7221 119.674 48.4552 116.177 50.6159 112.424C53.5684 107.297 55.9788 101.85 58.4723 96.4714C59.3175 94.6535 59.6293 92.5947 60.3598 90.714C60.5129 90.3191 61.0365 90.0717 61.5198 89.8037C61.7331 89.688 61.9951 89.8006 62.0508 90.0334C62.1744 90.5406 62.3252 91.0506 62.2026 91.4888C60.5354 97.4097 58.7221 103.286 57.0924 109.216C55.9835 113.254 55.0149 117.336 54.1406 121.43C52.8994 127.235 51.6629 133.047 50.674 138.896C49.6971 144.68 49.0089 150.511 48.2503 156.332C48.1164 157.36 48.1529 158.41 48.4067 159.597C48.4695 159.888 48.8375 159.986 49.0357 159.764C49.8384 158.869 50.7075 158.006 51.2738 156.981C52.8276 154.165 54.1794 151.24 55.5954 148.352C56.7929 145.908 57.9411 143.443 59.1399 141.005C61.011 137.214 62.8787 133.42 64.8162 129.661C65.2114 128.899 65.8474 128.26 66.3974 127.581C66.4831 127.476 66.6165 127.425 66.7461 127.449L67.1385 127.524C67.3023 127.555 67.4223 127.694 67.4333 127.86C67.5183 129.176 67.7762 130.525 67.5474 131.788C67.0788 134.408 66.2701 136.963 65.6536 139.557C65.1222 141.795 64.6591 144.047 64.5073 146.395C64.6442 145.942 64.7743 145.484 64.9203 145.032C66.0228 141.646 67.0706 138.24 68.2474 134.882C69.4741 131.392 70.7682 127.925 72.1413 124.493C73.1544 121.967 74.3894 119.533 75.4346 117.017C75.9822 115.7 76.2567 114.273 76.8009 112.954C77.4841 111.309 78.292 109.718 79.0862 108.119C81.7872 102.663 84.4929 97.2161 87.2306 91.7794C87.5984 91.0527 88.1862 90.4362 88.6191 89.7363C93.0529 82.5569 97.2184 75.1983 101.981 68.2466C105.77 62.7221 110.025 57.4355 116.012 53.9714C117.314 53.2185 118.643 52.5068 119.99 51.8354C120.174 51.7441 120.461 51.8629 120.754 51.9421C120.87 51.9722 120.987 51.9401 121.086 51.8676C122.294 50.9495 125.174 51.5126 126.804 52.5864C131.112 55.4268 131.359 59.9551 131.989 64.3059C132.358 66.8533 132.617 69.4756 132.414 72.0272C132.086 76.1583 131.367 80.2589 130.752 84.3627C130.463 86.3101 129.878 89.4734 129.421 91.3874C128.707 94.3875 127.925 97.3732 127.093 100.347C125.478 106.108 123.861 111.873 122.118 117.601C120.999 121.271 119.71 124.89 118.388 128.494C116.633 133.293 114.868 138.092 112.935 142.823C110.807 148.028 108.557 153.19 106.227 158.311C104.447 162.218 102.473 166.041 100.562 169.889C98.9649 173.102 97.4115 176.337 95.6825 179.476C94.5965 181.445 93.2168 183.253 91.9643 185.127C89.7158 188.492 87.7589 192.113 85.1334 195.158C82.0293 198.753 78.5865 202.158 74.8299 205.051C72.1937 207.081 68.6228 208.351 65.2578 207.356C63.2771 206.769 61.1924 204.964 60.1326 203.142C56.9074 197.602 56.7306 191.306 56.9183 185.105C57.0746 179.955 57.5125 174.794 58.1349 169.678C58.6613 165.34 59.552 161.044 60.4237 156.756C61.9877 149.058 63.6562 141.379 65.2781 133.689C65.347 133.366 65.3407 133.025 65.4142 132.16C64.9155 132.949 64.6602 133.284 64.4769 133.65C62.2404 138.218 60.0889 142.835 57.7618 147.355C55.3862 151.974 52.9398 156.569 50.2968 161.038C49.6083 162.204 48.3317 164.154 46.5826 162.917C43.0004 160.387 39.472 157.703 36.3063 154.674C32.504 151.04 29.091 146.997 25.5424 143.1C24.9571 142.46 24.4825 141.721 23.8718 140.838C23.6969 140.588 23.3091 140.651 23.2248 140.945C22.9161 141.998 22.6481 142.865 22.4358 143.743C21.8547 146.167 20.9362 148.589 20.8831 151.033C20.8439 152.859 21.6781 154.847 22.578 156.525C25.4155 161.814 28.2568 167.12 31.4846 172.174C36.6937 180.327 41.9569 188.471 47.68 196.27C52.4118 202.718 57.702 208.772 63.0066 214.773C66.1295 218.305 69.6835 221.468 73.1998 224.622C74.3797 225.682 76.0053 226.281 77.4966 226.939C78.8174 227.524 79.4977 228.388 79.5365 230.297C79.5435 230.577 79.2356 230.758 78.991 230.618C77.1852 229.601 75.6463 228.758 74.1444 227.856C72.4368 226.83 70.7671 225.735 69.487 224.926C69.4663 224.913 69.4478 224.896 69.4293 224.88C48.5733 204.87 33.4742 181.348 20.3494 156.345C20.2079 156.073 19.8121 156.087 19.6958 156.371C16.8643 163.17 11.4744 204.452 12.5968 210.498C12.6543 210.804 13.0492 210.89 13.2401 210.649C13.2566 210.631 13.2719 210.606 13.2884 210.588C13.9305 211.008 13.6912 210.852 14.3332 211.273C13.731 212.401 13.1254 213.527 12.5232 214.655C11.7443 214.557 11.7136 214.552 10.9347 214.455C10.7159 213.579 10.4767 212.705 10.4455 211.822C10.3247 208.531 10.1636 205.218 10.3883 201.938C10.6198 198.57 11.3242 195.241 11.7563 191.885C12.0573 189.53 12.1413 187.144 12.505 184.805C13.0427 181.327 13.736 177.87 14.368 174.404C15.1263 170.242 15.8629 166.075 16.6519 161.917C17.1788 159.137 18.0165 156.384 18.2338 153.581C18.3389 152.215 17.429 150.729 16.8434 149.356C15.8273 146.968 14.6833 144.63 13.6312 142.254C11.4177 137.253 9.14496 132.278 7.05588 127.226C5.43539 123.304 4.03889 119.287 2.57523 115.301C2.18038 114.222 1.87955 113.101 1.60378 111.987C1.5218 111.651 1.56878 110.996 1.71909 110.942C2.12282 110.792 2.8165 110.696 3.04859 110.924C4.47003 112.32 5.95773 113.694 7.11617 115.299C9.93599 119.203 12.5545 123.25 15.3188 127.196C17.3142 130.044 19.4007 132.824 21.4673 135.621C21.6419 135.856 21.8676 136.057 22.1442 136.299C22.3445 136.479 22.6658 136.383 22.7374 136.125C22.8618 135.668 22.9634 135.294 23.0627 134.923C23.9002 131.842 24.7773 128.767 25.5396 125.667C25.6792 125.095 25.4771 124.346 25.2162 123.781C23.7215 120.546 21.9626 117.423 20.6698 114.114C18.4157 108.345 18.2235 102.294 18.8121 96.1928C19.4306 89.7919 20.6214 83.5553 23.9645 77.9326C24.324 77.326 24.7646 76.6598 25.3434 76.3172C26.0437 75.8972 27.013 75.4642 27.7081 75.6482C28.2459 75.7906 28.6747 76.8234 28.9154 77.5349C29.3641 78.8646 29.7404 80.2402 29.9414 81.6254C29.9951 82.0064 29.7545 82.4327 29.5273 82.8531C29.4061 83.0753 29.1037 83.1106 28.9337 82.9211C28.6996 82.6574 28.4677 82.3903 28.3535 82.0819C27.8649 80.7847 27.456 79.4608 26.859 77.6324C26.7707 77.3596 26.4125 77.2922 26.229 77.5136C25.4033 78.5291 24.6163 79.2848 24.3256 80.1952C23.0045 84.3007 21.3621 88.4103 20.85 92.6417C20.2675 97.4505 20.2627 102.461 20.9587 107.249C21.5152 111.081 23.4739 114.72 24.8592 118.426C25.1806 119.285 25.6086 120.105 26.0964 121.098C26.2443 121.399 26.6834 121.353 26.7739 121.035C27.2625 119.3 27.6581 117.834 28.1018 116.384C29.6955 111.144 31.2837 105.906 32.9186 100.678C33.802 97.8531 34.755 95.0477 35.7809 92.2644C38.2613 85.5466 40.6126 78.7809 43.2678 72.1302C46.3565 64.3895 49.5409 56.6805 52.9602 49.0814C55.3867 43.6937 58.153 38.4485 60.9851 33.2595C62.8747 29.7979 65.1233 26.5247 67.263 23.202C68.5389 21.2226 69.8514 19.2616 71.2575 17.3742C72.2672 16.0218 73.4928 14.8398 74.559 13.528C76.1613 11.567 77.5573 9.41294 79.3197 7.6111C81.3085 5.58121 83.5872 3.82618 85.7908 2.01411C86.087 1.729 86.6847 1.82257 87.2057 1.74713ZM59.5289 178.388C59.3441 178.107 58.9108 178.204 58.8648 178.537C58.8233 178.824 58.7942 179.061 58.7901 179.304C58.7488 180.912 58.7439 182.524 58.7173 184.131C58.6463 189.071 58.6704 194.013 60.6185 198.677C62.6072 203.429 64.7252 205.564 69.2927 204.321C72.3652 203.487 75.3391 201.381 77.7261 199.165C81.8753 195.315 85.4803 190.928 88.2491 185.877C90.9129 181.015 94.0793 176.428 96.766 171.576C99.2351 167.122 101.27 162.422 103.494 157.836C105.518 153.664 107.454 149.451 109.277 145.185C110.788 141.658 112.232 138.098 113.533 134.491C116.524 126.187 119.455 117.855 122.228 109.476C123.927 104.337 125.589 99.1499 126.736 93.8689C128.254 86.885 129.457 79.8124 130.397 72.7278C130.948 68.5644 130.825 64.2979 129.471 60.1833C128.604 57.5525 127.281 55.1392 124.478 54.5529C119.982 53.6135 116.043 55.2974 112.559 58.1027C107.681 62.0364 104.214 67.1904 100.702 72.2482C98.5114 75.399 96.5378 78.711 94.6328 82.052C91.7776 87.0482 89.0821 92.1356 86.5459 97.2996C84.0267 102.421 81.5307 107.568 79.2852 112.814C76.3978 119.549 73.61 126.333 71.0792 133.207C68.5218 140.146 66.054 147.142 64.0567 154.257C62.4262 160.066 61.3947 166.066 60.4235 172.031C60.0693 174.203 60.4958 176.546 62.306 178.731C62.3993 178.844 62.5578 178.891 62.696 178.848C64.6309 178.24 66.6153 177.615 68.6165 176.986C69.014 176.861 69.2764 177.393 68.9315 177.633C67.5654 178.587 66.1315 179.449 64.6068 180.08C62.9366 180.774 60.9531 181.115 59.8173 178.879C59.7432 178.721 59.6466 178.568 59.5289 178.388ZM54.8039 109.765C54.8875 109.35 54.3132 109.151 54.1178 109.529C53.9764 109.806 53.8351 110.083 53.6972 110.362C50.4328 116.96 46.447 122.996 40.3507 127.374C36.4825 130.153 31.5445 130.752 27.8571 126.776C27.743 126.651 27.6003 126.556 27.4425 126.447C27.2584 126.325 27.0098 126.39 26.913 126.589C26.8515 126.709 26.8043 126.814 26.7787 126.923C26.2316 128.988 25.2021 133.167 25.1947 133.186C23.7665 138.439 22.8297 138.14 25.4513 140.815C28.9498 144.387 32.0206 148.368 35.3579 152.103C37.0126 153.954 38.7949 155.703 40.6251 157.376C42.0986 158.727 43.6956 159.944 45.3556 161.283C45.5866 161.468 45.9258 161.321 45.9423 161.028C47.0483 143.491 51.3984 126.729 54.8039 109.765ZM18.9625 149.274C19.1737 148.94 19.2753 148.84 19.3074 148.721C20.0115 146.148 20.7805 143.588 21.3697 140.991C21.5981 139.989 21.8163 138.666 21.3609 137.882C20.2385 135.952 18.7202 134.259 17.3658 132.468C14.9017 129.208 12.4354 125.951 9.98685 122.682C8.94121 121.288 7.90774 119.883 6.87772 118.479C6.63397 118.147 6.11428 118.411 6.23841 118.803C9.60932 129.26 13.9178 139.326 18.9625 149.274Z" fill="black"/>
<path d="M77.6808 85.3886C77.3581 86.0136 77.0353 86.6386 76.7125 87.2636C76.646 87.2312 76.5783 87.1932 76.5118 87.1608C76.8334 86.5302 77.1583 85.9018 77.4798 85.2711C77.5454 85.3126 77.6131 85.3506 77.6808 85.3886Z" fill="black"/>
<path d="M14.6977 208.65L13.2752 210.555L14.32 211.24L19.3013 202.195" fill="black"/>
<path d="M13.6175 209.403L22.2386 197.549L15.8383 210.856" fill="black"/>
</svg>
